PathFileType	4	(X/Y/Z)	19_coords_data.trc
DataRate	CameraRate	NumFrames	NumMarkers	Units	OrigDataRate	OrigDataStartFrame	OrigNumFrames
30.0	30.0	6	21	m	30.0	47	75
Frame#	Time	THUMB_TIP	THUMB_IP	THUMB_MCP	THUMB_CMC	INDEX_TIP	INDEX_DIP	INDEX_PIP	INDEX_MCP	MIDDLE_TIP	MIDDLE_DIP	MIDDLE_PIP	MIDDLE_MCP	RING_TIP	RING_DIP	RING_PIP	RING_MCP	PINKY_TIP	PINKY_DIP	PINKY_PIP	PINKY_MCP	WRIST
X1	Y1	Z1	X2	Y2	Z2	X3	Y3	Z3	X4	Y4	Z4	X5	Y5	Z5	X6	Y6	Z6	X7	Y7	Z7	X8	Y8	Z8	X9	Y9	Z9	X10	Y10	Z10	X11	Y11	Z11	X12	Y12	Z12	X13	Y13	Z13	X14	Y14	Z14	X15	Y15	Z15	X16	Y16	Z16	X17	Y17	Z17	X18	Y18	Z18	X19	Y19	Z19	X20	Y20	Z20	X21	Y21	Z21
45	1.5333333333333266	0.5263489157883179	0.0738453603171787	-0.09354875797566786	0.5172918524814148	0.05499797102205928	-0.08402271362279129	0.5027670314414907	0.027522796791041304	-0.08230097765773164	0.4831661721573507	-0.00434972618545304	-0.05801438476296386	0.4886384209899035	0.1385870562896736	-0.025909816625908882	0.4814124309635182	0.12409531846666455	-0.03401997094057824	0.47470193362288315	0.10194345723759457	-0.04383190767750006	0.47748691483872696	0.0602276928922002	-0.0519359177161737	0.45709408745594426	0.1372596444901112	0.009108639487956094	0.45679190430645034	0.12147923582060294	0.00022678227409202167	0.45699029696902693	0.09620929901662056	-0.014292187533514092	0.46518292867722144	0.055928312125918644	-0.03179849501981745	0.4600680841303245	0.11642748424728622	0.031857440686804246	0.45823299290934894	0.10132014132689715	0.022193040545229248	0.4566929280785724	0.08036538347331246	0.008824932877551192	0.46331454736276545	0.04648248451491199	-0.012218454450301397	0.4685368944197327	0.0676606770915934	0.06366240675300801	0.46726125506505595	0.05810475638011314	0.049518251649478415	0.4658938695489199	0.047073769255962516	0.0317064690627443	0.46605464022022014	0.028583365687026796	0.0007393481173102734	0.4622830810018609	-0.023011742144276925	-0.051989820119430985
46	1.5666666666666598	0.5278316511032835	0.0735661340496998	-0.09193021232495524	0.5182150370031524	0.054660803066956865	-0.08309227174571956	0.5033375517387819	0.027344457488359897	-0.08195310694679583	0.4832415776448963	-0.004398625644477572	-0.05790277434120289	0.489761035318777	0.13814627691931236	-0.02553008190468692	0.48229493267018353	0.12387116222866956	-0.03380525029026425	0.475273834484511	0.10190886083521278	-0.04382379962487934	0.4776455948676621	0.06019851564237311	-0.052085636622731274	0.4579453487624278	0.13726681040179955	0.009122911552792351	0.4574242206302218	0.1215346194605117	0.00016598162916989234	0.457304174129583	0.09632764193016297	-0.014462874191507977	0.4650448330091525	0.05600353995349994	-0.03207528234274702	0.46064097460319475	0.11664477524909755	0.031510008405111804	0.4584941620257837	0.10156808243329651	0.021861975989357407	0.4566087181745127	0.08063207048141774	0.008508756001860157	0.46281899430492607	0.046631527721173294	-0.012470195268229775	0.4681381727230011	0.06812082761672866	0.06333708485494337	0.46669973982971613	0.05852141119847187	0.04923807371088028	0.4651887188467499	0.04742443159078158	0.03147896680271793	0.46531788233826576	0.02875299252958219	0.0006205136467935246	0.4622830810018609	-0.023011742144276925	-0.051989820119430985
47	1.599999999999993	0.5292051338969858	0.073260944654025	-0.09040408437739161	0.519084058098055	0.05432572628643095	-0.08221742876940216	0.5038922373307793	0.027165944076365856	-0.08160520979157801	0.4833423259337477	-0.004486645711957449	-0.05782066226032814	0.4909820061282882	0.13772667771747282	-0.025162462313368397	0.4833077700737256	0.12363991499806004	-0.0335689608154688	0.47601154202905716	0.10184352769341254	-0.04375190684233146	0.47794338919034707	0.06014283261111186	-0.05217545064517359	0.45892053679672706	0.13727425703978413	0.00915015619675276	0.45820508900060486	0.12158362178579096	0.00013394303505528948	0.45780498886089405	0.09642704757794429	-0.014576469739687306	0.465071708195512	0.056052890895116114	-0.03227590993598568	0.46133604721069216	0.11681678675630414	0.03120091285695277	0.45889901722578563	0.10176866157865239	0.021577253808005195	0.45668880685672186	0.08085687534258923	0.008235884105396496	0.46252968326524996	0.046747430494060604	-0.012672266671405641	0.4678404514663927	0.06848349933467568	0.06307118035964901	0.46626665178865584	0.05883878440718926	0.049017617518082035	0.4646464261596757	0.047697337254958505	0.031296019303890255	0.4647772459815113	0.028873063853338765	0.000530566795024251	0.4622830810018609	-0.023011742144276925	-0.051989820119430985
48	1.6333333333333262	0.5304348851442113	0.07298598281162283	-0.08885872022579733	0.5198764658092696	0.05402676232900672	-0.0813044009421634	0.5044298202187811	0.02700431117754798	-0.08121344068234657	0.4834536086791814	-0.004579696119416221	-0.05771154644993881	0.4921222556377597	0.13731756028779252	-0.024683910980274545	0.48426207723012926	0.12341549399288276	-0.03322499686745277	0.47674768255665134	0.10175864270139623	-0.04354606744320447	0.4782760523499457	0.060079532122451984	-0.0521572184187179	0.45979664546048127	0.13723850079484112	0.00926881885511982	0.45891781065913817	0.12158887621189984	0.00019595272555805732	0.45827645302144404	0.09647613684245393	-0.014580668395079044	0.4651489821867503	0.056074889996085786	-0.032375485537461876	0.4618998902757599	0.11687932888448871	0.031054893065353556	0.45922717839355803	0.10187115413936176	0.02143141645788632	0.4567569729060392	0.0809971194197453	0.008076539506986141	0.4623131215550903	0.04680695805215307	-0.0127773069451112	0.46748482018622317	0.06866947568871573	0.06293801620146618	0.4658274130564122	0.05900633259601218	0.04890674159165312	0.46417099358361635	0.04784539622630479	0.031200759752695803	0.46433115323797286	0.02893582706822606	0.0004877984148345532	0.4622830810018609	-0.023011742144276925	-0.051989820119430985
49	1.6666666666666594	0.531492489573839	0.0727087156984263	-0.08750872172773999	0.5205838430679399	0.053734233455954405	-0.08051083240027485	0.5049056219228051	0.02684772031943361	-0.08086970993363357	0.4835595463613349	-0.004672772358704225	-0.05761689076151036	0.49304981856729113	0.13695286648546567	-0.024169793371551812	0.48505472004379735	0.12320028697546592	-0.03282686888356877	0.4773769781375993	0.10166787148562972	-0.043287136346443184	0.4786002208441976	0.060016601566435845	-0.052079831348501276	0.46050575019102474	0.1371303376729005	0.009524700984462495	0.459507822602615	0.12153012083540171	0.00037935379852643836	0.4586883988320177	0.0964703868979323	-0.0144782311218912	0.46527832844679773	0.0560736421673772	-0.032389785042381436	0.4623084018093603	0.116840231510566	0.031074902416151955	0.45948562559803796	0.10187362097583608	0.02142956657116929	0.4568335187447614	0.08104758917911492	0.008034690392541594	0.462222527053178	0.046827420003543896	-0.012813797443441077	0.4671515982934063	0.06873726972864158	0.06289955078489763	0.4654548401202888	0.05907153741547444	0.0488747644923313	0.4638135116390415	0.04789743388050538	0.031175683442558236	0.464042847155821	0.028943881708545782	0.0004902843692928815	0.4622830810018609	-0.023011742144276925	-0.051989820119430985
50	1.6999999999999926	0.532239280422775	0.07253035100775251	-0.08640591067552472	0.5210884778171191	0.05352617043943331	-0.07988665288215455	0.5052538376962213	0.02673900602492818	-0.08061603266795123	0.4836362531090965	-0.0047473591493057965	-0.057568715150867256	0.4937573509452202	0.136676705448615	-0.02379996592961632	0.4856495931122097	0.12304522495605319	-0.032543363581682735	0.47785266117734787	0.1015970825521787	-0.04308826153406964	0.47884091939890616	0.05996897936604406	-0.052019132981585614	0.46116684242258976	0.13703919079313753	0.009741156325727446	0.4600600141728345	0.12147657405751866	0.0005444236686486664	0.4590733272631502	0.09645725743597122	-0.014370997704313812	0.46541820945982715	0.05606728207509992	-0.03238599926574859	0.46272262293340977	0.11680634327237505	0.031089804634930898	0.4597865148713086	0.10187026287701206	0.021430986287383297	0.4569824850407749	0.08108138598323333	0.008009362197699113	0.46224842300131375	0.046836718515794074	-0.012830347047879803	0.4670533563167837	0.06879573686390394	0.06286059096525139	0.4653325749841494	0.05912221422534625	0.04884410526567004	0.46368956727173755	0.04793287377357458	0.031154808928299832	0.46395703976192804	0.028947802740372897	0.0004892095157449927	0.4622830810018609	-0.023011742144276925	-0.051989820119430985
